# xmcd
#
# Track frame offsets:
#	150
#	22636
#	41734
#	57793
#	76206
#	91430
#	113755
#	129995
#	149362
#	178200
#	201702
#	220130
#	241894
#	257625
#	278392
#	296469
#
# Disc length: 4192 seconds
#
# Revision: 0
# Processed by: cddbd v1.5PL3 Copyright (c) Steve Scherf et al.
# Submitted via: dBpowerAMP V4.0
#
DISCID=e0105e10
DTITLE=Eagle - hell freezes over
DYEAR=2003
DGENRE=Country
TTITLE0=I Can't tell you why
TTITLE1=Witahy woman
TTITLE2=Take it easy
TTITLE3=Hallywood waliz
TTITLE4=Saturday night
TTITLE5=Wasted time
TTITLE6=Desperado
TTITLE7=Already gone
TTITLE8=Lyin eyes
TTITLE9=Try and love again
TTITLE10=Love will keep us alise
TTITLE11=Take it to the limi
TTITLE12=Doolin Dalton
TTITLE13=The Best of my love
TTITLE14=Midnight flyer
TTITLE15=After the thrill is game
EXTD=Eagle_hell freezes over
EXTT0=
EXTT1=
EXTT2=
EXTT3=
EXTT4=
EXTT5=
EXTT6=
EXTT7=
EXTT8=
EXTT9=
EXTT10=
EXTT11=
EXTT12=
EXTT13=
EXTT14=
EXTT15=
PLAYORDER=
